# xmcd CD database file
#
# Track frame offsets:
#	187
#	13535
#	22007
#	35327
#	48802
#	63027
#	75407
#	86790
#	98575
#	111757
#
# Disc length: 1643 seconds
#
# Revision: 0
# Processed by: cddbd v1.5.1PL2 Copyright (c) Steve Scherf et al.
# Submitted via: CDex 1.51
#
DISCID=6706690a
DTITLE=Various Artist - Country Standards
DYEAR=1900
DGENRE=Country
TTITLE0=Lovesick Blues - George Strait
TTITLE1=Jambalaya - Conway Twitty
TTITLE2=I Really Don't Want To Know - Loretta Lynn
TTITLE3=Release Me - Loretta Lynn and Conway Twitty
TTITLE4=Tie A Yellow Ribbon 'round The Oak Tree - Johnny Carver
TTITLE5=Your Cheatin' Heart - Loretta Lynn
TTITLE6=Rose Garden - Loretta Lynn
TTITLE7=Take Me Home, Country Road - Loretta Lynn
TTITLE8=Green Green Grass Of Home - Jimmie Davis
TTITLE9=You Are My Sun Shine - Jimmie Davis
EXTD=
EXTT0=
EXTT1=
EXTT2=
EXTT3=
EXTT4=
EXTT5=
EXTT6=
EXTT7=
EXTT8=
EXTT9=
PLAYORDER=
